<svg width="72" height="78" viewBox="0 0 72 78" fill="none" xmlns="http://www.w3.org/2000/svg">
<path d="M0.0307992 38.4655C9.51427 37.8563 21.4276 38.9166 29.186 30.8878C31.0775 29.2094 35.3159 20.0257 35.5558 0.0289553C35.9975 7.93986 38.0623 24.9658 42.7879 29.7824C45.4648 32.7303 50.3801 37.4063 71.0409 38.2006C71.0409 38.2006 50.7928 37.3976 43.1497 46.9807C39.7827 51.2022 36.9651 57.2585 37.1453 75.0971C37.1627 75.7782 37.1719 76.4189 37.1753 77.0119C37.1616 76.359 37.1516 75.7209 37.1453 75.0971C36.8984 65.4289 34.9982 47.648 24.492 43.2765C14.1029 38.9538 0.0307992 38.4655 0.0307992 38.4655Z" fill="#FF7998" stroke="#FF7998"/>
</svg>
