<svg width="43" height="43" viewBox="0 0 43 43" fill="none" xmlns="http://www.w3.org/2000/svg">
<g clip-path="url(#clip0_393_70)">
<path fill-rule="evenodd" clip-rule="evenodd" d="M22.7669 28.1416C22.4309 28.4775 21.9753 28.6662 21.5002 28.6662C21.0251 28.6662 20.5694 28.4775 20.2335 28.1416L10.098 18.0062C9.92688 17.8409 9.79038 17.6432 9.69648 17.4246C9.60258 17.206 9.55316 16.9709 9.55109 16.733C9.54902 16.4951 9.59436 16.2592 9.68444 16.039C9.77453 15.8188 9.90757 15.6188 10.0758 15.4505C10.244 15.2823 10.4441 15.1493 10.6642 15.0592C10.8844 14.9691 11.1204 14.9238 11.3583 14.9258C11.5962 14.9279 11.8313 14.9773 12.0498 15.0712C12.2684 15.1651 12.4661 15.3016 12.6314 15.4728L21.5002 24.3415L30.3689 15.4728C30.7068 15.1464 31.1594 14.9658 31.6292 14.9699C32.0989 14.974 32.5483 15.1624 32.8805 15.4946C33.2127 15.8268 33.4011 16.2761 33.4052 16.7459C33.4093 17.2157 33.2287 17.6683 32.9023 18.0062L22.7669 28.1416Z" fill="#484848" fill-opacity="0.42"/>
</g>
<defs>
<clipPath id="clip0_393_70">
<rect width="43" height="43" fill="white" transform="matrix(0 1 -1 0 43 0)"/>
</clipPath>
</defs>
</svg>
